<?xml version="1.0" encoding="UTF-8"?>
<svg id="Layer_1" data-name="Layer 1" xmlns="http://www.w3.org/2000/svg" viewBox="0 0 700 700">
  <defs>
    <style>
      .cls-1 {
        fill: #daa112;
      }

      .cls-2 {
        fill: #10383a;
      }

      .cls-3 {
        fill: #a7a9ac;
        font-family: JUSTSans-Md, 'JUST Sans';
        font-size: 24.75px;
        font-weight: 500;
      }

      .cls-4 {
        fill: #fff;
        font-family: Shiromeda-Bold, Shiromeda;
        font-size: 37.12px;
        font-weight: 700;
      }
    </style>
  </defs>
  <g>
    <circle class="cls-2" cx="353.58" cy="350" r="286.17"/>
    <text class="cls-4" transform="translate(151.96 298.41) rotate(-72.03)"><tspan x="0" y="0">አ</tspan></text>
    <text class="cls-4" transform="translate(162.45 266.92) rotate(-61.89)"><tspan x="0" y="0">ዲ</tspan></text>
    <text class="cls-4" transform="translate(182.77 231.2) rotate(-51.9)"><tspan x="0" y="0">ስ</tspan></text>
    <text class="cls-4" transform="translate(201.9 207.93) rotate(-44.85)"><tspan x="0" y="0"> </tspan></text>
    <text class="cls-4" transform="translate(216.58 193.3) rotate(-37.28)"><tspan x="0" y="0">አ</tspan></text>
    <text class="cls-4" transform="translate(243.21 173.63) rotate(-28.67)"><tspan x="0" y="0">በ</tspan></text>
    <text class="cls-4" transform="translate(272.04 158.58) rotate(-19.82)"><tspan x="0" y="0">ባ</tspan></text>
    <text class="cls-4" transform="translate(300.84 148.95) rotate(-12.72)"><tspan x="0" y="0"> </tspan></text>
    <text class="cls-4" transform="translate(321.06 144.42) rotate(-5.31)"><tspan x="0" y="0">ቱ</tspan></text>
    <text class="cls-4" transform="translate(353.82 142) rotate(3.21)"><tspan x="0" y="0">ሪ</tspan></text>
    <text class="cls-4" transform="translate(383 143.91) rotate(12.01)"><tspan x="0" y="0">ዝ</tspan></text>
    <text class="cls-4" transform="translate(417.77 151.47) rotate(23.27)"><tspan x="0" y="0">ም</tspan></text>
    <text class="cls-4" transform="translate(459.16 170.92) rotate(32.45)"><tspan x="0" y="0"> </tspan></text>
    <text class="cls-4" transform="translate(476.65 182.07) rotate(39.97)"><tspan x="0" y="0">ኮ</tspan></text>
    <text class="cls-4" transform="translate(502.72 204.19) rotate(50.86)"><tspan x="0" y="0">ሚ</tspan></text>
    <text class="cls-4" transform="translate(532.02 242.71) rotate(62.67)"><tspan x="0" y="0">ሽ</tspan></text>
    <text class="cls-4" transform="translate(546.7 272.37) rotate(71.34)"><tspan x="0" y="0">ን</tspan></text>
    <g>
      <text class="cls-3" transform="translate(130.22 400.37) rotate(74.92)"><tspan x="0" y="0">A</tspan></text>
      <text class="cls-3" transform="translate(136.53 422.83) rotate(69.35)"><tspan x="0" y="0">D</tspan></text>
      <text class="cls-3" transform="translate(145.24 444.98) rotate(63.38)"><tspan x="0" y="0">D</tspan></text>
      <text class="cls-3" transform="translate(156.14 465.69) rotate(58.83)"><tspan x="0" y="0">I</tspan></text>
      <text class="cls-3" transform="translate(162.72 476.45) rotate(54.52)"><tspan x="0" y="0">S</tspan></text>
      <text class="cls-3" transform="translate(175.58 493.79) rotate(50.27)"><tspan x="0" y="0"> </tspan></text>
      <text class="cls-3" transform="translate(183.39 503.15) rotate(45.85)"><tspan x="0" y="0">A</tspan></text>
      <text class="cls-3" transform="translate(199.89 519.66) rotate(40.07)"><tspan x="0" y="0">B</tspan></text>
      <text class="cls-3" transform="translate(217.5 534.07) rotate(34.34)"><tspan x="0" y="0">A</tspan></text>
      <text class="cls-3" transform="translate(236.98 546.96) rotate(28.58)"><tspan x="0" y="0">B</tspan></text>
      <text class="cls-3" transform="translate(257.1 557.57) rotate(22.85)"><tspan x="0" y="0">A</tspan></text>
      <text class="cls-3" transform="translate(278.45 566.09) rotate(18.46)"><tspan x="0" y="0"> </tspan></text>
      <text class="cls-3" transform="translate(289.83 569.84) rotate(14.32)"><tspan x="0" y="0">T</tspan></text>
      <text class="cls-3" transform="translate(310.74 574.92) rotate(8.52)"><tspan x="0" y="0">O</tspan></text>
      <text class="cls-3" transform="translate(335.36 578.23) rotate(2.33)"><tspan x="0" y="0">U</tspan></text>
      <text class="cls-3" transform="translate(359.56 578.83) rotate(-3.56)"><tspan x="0" y="0">R</tspan></text>
      <text class="cls-3" transform="translate(381.6 577.05) rotate(-7.92)"><tspan x="0" y="0">I</tspan></text>
      <text class="cls-3" transform="translate(394.08 575.25) rotate(-12.17)"><tspan x="0" y="0">S</tspan></text>
      <text class="cls-3" transform="translate(415.67 570.41) rotate(-18.43)"><tspan x="0" y="0">M</tspan></text>
      <text class="cls-3" transform="translate(442.35 560.84) rotate(-23.53)"><tspan x="0" y="0"> </tspan></text>
      <text class="cls-3" transform="translate(453.53 555.95) rotate(-28.03)"><tspan x="0" y="0">C</tspan></text>
      <text class="cls-3" transform="translate(474.51 544.42) rotate(-34.16)"><tspan x="0" y="0">O</tspan></text>
      <text class="cls-3" transform="translate(495.04 530.13) rotate(-40.94)"><tspan x="0" y="0">M</tspan></text>
      <text class="cls-3" transform="translate(516.62 510.83) rotate(-48.19)"><tspan x="0" y="0">M</tspan></text>
      <text class="cls-3" transform="translate(535.04 489.29) rotate(-53.33)"><tspan x="0" y="0">I</tspan></text>
      <text class="cls-3" transform="translate(542.51 479.14) rotate(-57.59)"><tspan x="0" y="0">S</tspan></text>
      <text class="cls-3" transform="translate(553.87 460.71) rotate(-62.98)"><tspan x="0" y="0">S</tspan></text>
      <text class="cls-3" transform="translate(563.33 441.31) rotate(-67.24)"><tspan x="0" y="0">I</tspan></text>
      <text class="cls-3" transform="translate(568.22 429.6) rotate(-71.87)"><tspan x="0" y="0">O</tspan></text>
      <text class="cls-3" transform="translate(575.6 405.88) rotate(-78.09)"><tspan x="0" y="0">N</tspan></text>
    </g>
  </g>
  <g>
    <path class="cls-1" d="M421.85,417.92c-2.39,2.36-5.17,4.13-8.26,5.27l24.62,58.54c-5.35,3.41-10.8,6.49-16.57,9.27l-38.89-92.7h.27c.96,0,1.91-.06,2.87-.21,5.38-.81,10.26-3.89,13.37-8.55,1.61-2.39,2.63-5.06,3.05-7.84v-.03c.15-1.02.21-2.03.21-3.05l92.19,39.31c-2.78,5.68-5.89,11.25-9.27,16.48l-58.15-24.74c-1.23,2.99-2.99,5.77-5.44,8.26Z"/>
    <path class="cls-1" d="M404.2,498.21c-5.98,1.97-12.06,3.62-18.34,4.96l-23.6-58.66c-2.99,1.23-6.19,1.97-9.6,1.97h-.09c-3.29,0-6.61-.75-9.6-2.06l-23.81,58.24c-6.28-1.46-12.26-3.2-18.13-5.38l37.84-92.34c.66.69,1.38,1.29,2.12,1.85,0,0,.03,0,.03.03,3.29,2.45,7.36,3.86,11.7,3.86s8.38-1.41,11.67-3.89c.78-.57,1.5-1.2,2.18-1.88l37.63,93.3Z"/>
    <circle class="cls-1" cx="352.73" cy="484.82" r="12.18"/>
    <path class="cls-1" d="M264.99,436.29c-4.76-4.76-12.47-4.76-17.23,0-4.76,4.76-4.76,12.47,0,17.23,4.76,4.76,12.47,4.76,17.23,0,4.76-4.76,4.76-12.47,0-17.23Z"/>
    <circle class="cls-1" cx="216.45" cy="348.53" r="12.18"/>
    <path class="cls-1" d="M322.74,298.86h-.21c-.93,0-1.83.06-2.72.21-5.45.75-10.35,3.8-13.49,8.5-1.62,2.42-2.63,5.12-3.05,7.87-.15,1.02-.24,2.03-.24,3.05l-89.32-38.08c2.78-5.65,5.98-11.22,9.39-16.48l55.04,23.51c1.23-3.11,2.99-5.77,5.47-8.26s5.15-4.22,8.23-5.35l-23.09-55.04c5.27-3.5,10.83-6.61,16.51-9.39l37.48,89.47Z"/>
    <path class="cls-1" d="M264.98,260.78c4.76-4.76,4.76-12.47,0-17.23-4.76-4.76-12.47-4.76-17.23,0-4.76,4.76-4.76,12.47,0,17.23,4.76,4.76,12.47,4.76,17.23,0Z"/>
    <path class="cls-1" d="M403.69,201.76l-37.09,90.43c-.69-.72-1.43-1.35-2.24-1.94-3.29-2.45-7.33-3.86-11.64-3.86s-8.35,1.38-11.61,3.83c-.81.57-1.56,1.2-2.24,1.91l-36.2-89.95c5.89-2.06,11.97-3.71,18.25-5.05l22.26,55.46c2.99-1.35,6.19-1.94,9.6-1.94h.09c3.41,0,6.7.72,9.6,2.03l22.88-55.85c6.28,1.23,12.35,2.99,18.34,4.94Z"/>
    <circle class="cls-1" cx="352.73" cy="212.25" r="12.18"/>
    <path class="cls-1" d="M493.79,280.32l-91.48,38.23c0-.93-.06-1.85-.21-2.78v-.03c-.39-2.84-1.41-5.59-3.05-8.08-3.11-4.67-7.99-7.75-13.4-8.55-.93-.15-1.88-.21-2.84-.21h-.03l38.32-90.01c5.68,2.69,11.25,5.77,16.6,9.18l-23.81,55.97c2.99,1.14,5.77,2.87,8.14,5.35,2.48,2.36,4.25,5.26,5.38,8.26l56.78-23.81c3.5,5.23,6.7,10.71,9.6,16.48Z"/>
    <path class="cls-1" d="M440.49,260.78c4.76,4.76,12.47,4.76,17.23,0,4.76-4.76,4.76-12.47,0-17.23-4.76-4.76-12.47-4.76-17.23,0-4.76,4.76-4.76,12.47,0,17.23Z"/>
    <path class="cls-1" d="M476.84,348.54c0,6.73,5.45,12.18,12.18,12.18s12.18-5.46,12.18-12.18-5.45-12.18-12.18-12.18-12.18,5.46-12.18,12.18Z"/>
    <path class="cls-1" d="M440.49,436.29c-4.76,4.76-4.76,12.47,0,17.23,4.76,4.76,12.47,4.76,17.23,0,4.76-4.76,4.76-12.47,0-17.23-4.76-4.76-12.47-4.76-17.23,0Z"/>
    <path class="cls-1" d="M506.86,382.14c-1.32,6.31-2.99,12.38-5.06,18.25l-92.61-37.87c.78-.75,1.47-1.52,2.09-2.39,2.42-3.26,3.8-7.3,3.77-11.58,0-4.28-1.41-8.35-3.83-11.61-.6-.84-1.29-1.62-2.03-2.36l91.89-37.06c2.19,5.98,3.92,12.09,5.27,18.25l-57.73,23.3c1.35,2.9,2.06,6.19,2.06,9.57s-.72,6.7-2.06,9.6l58.24,23.9Z"/>
    <path class="cls-1" d="M296.12,362.55l-90.85,36.61c-2.06-5.98-3.71-12.17-4.97-18.46l56.51-22.67c-1.35-2.99-2.06-6.19-2.06-9.57.09-3.41.81-6.7,2.06-9.69l-55.76-22.79c1.44-6.28,3.17-12.35,5.23-18.25l89.8,36.76c-.87.81-1.62,1.7-2.3,2.66-2.33,3.26-3.65,7.24-3.62,11.43.03,4.19,1.38,8.14,3.74,11.4v.03c.69.93,1.41,1.76,2.21,2.54Z"/>
    <path class="cls-1" d="M322.71,398.27l-39.01,91.6c-5.77-2.78-11.22-5.98-16.48-9.48l24.41-57.31c-3.08-1.14-5.86-2.99-8.23-5.35-2.36-2.48-4.22-5.27-5.35-8.23l-56.72,23.78c-3.38-5.35-6.49-10.92-9.15-16.69l90.73-38.05c0,1.08.09,2.12.24,3.2.42,2.75,1.44,5.41,3.05,7.84,3.14,4.7,8.05,7.75,13.49,8.5.9.15,1.8.21,2.72.21h.3Z"/>
    <path class="cls-1" d="M379.88,337.11l7.11-16.91c1.58-3.77-2.2-7.56-5.97-5.98h0s-17.11,6.49-17.11,6.49l-6.98-16.59c-1.57-3.74-6.88-3.72-8.43.03l-7.06,17.17-17.1-7.16c-3.76-1.57-7.54,2.19-5.98,5.95l6.9,16.67-17.38,7.5c-3.69,1.59-3.67,6.84.04,8.4l17.34,7.29-7.02,17.01c-1.55,3.76,2.22,7.52,5.98,5.95l17.23-7.19,7.05,17.14c1.55,3.76,6.86,3.77,8.43.02l7.09-16.96,17.26,7.01c3.76,1.53,7.49-2.25,5.93-5.99l-7.11-17,17.23-7.22c3.74-1.57,3.73-6.87-.01-8.42l-17.42-7.24ZM352.56,360.51c-7.05,0-12.73-6.05-12.12-13.35.47-5.56,4.91-10.22,10.44-10.97,7.44-1,13.84,4.8,13.84,12.05,0,6.8-5.46,12.27-12.16,12.27Z"/>
  </g>
</svg>