<?xml version="1.0" encoding="UTF-8"?>
<svg id="Layer_1" data-name="Layer 1" xmlns="http://www.w3.org/2000/svg" viewBox="0 0 500 500">
  <defs>
    <style>
      .cls-1 {
        fill: #10383a;
      }
    </style>
  </defs>
  <path class="cls-1" d="M341.27,339.38c-2.66,2.63-5.76,4.59-9.18,5.86l27.39,65.12c-5.96,3.79-12.01,7.22-18.43,10.32l-43.26-103.12h.3c1.06,0,2.13-.07,3.19-.23,5.99-.9,11.41-4.33,14.87-9.52,1.8-2.66,2.93-5.62,3.39-8.72v-.03c.17-1.13.23-2.26.23-3.39l102.55,43.72c-3.09,6.32-6.55,12.51-10.31,18.33l-64.69-27.52c-1.36,3.33-3.33,6.42-6.06,9.18Z"/>
  <path class="cls-1" d="M321.64,428.69c-6.65,2.19-13.41,4.03-20.4,5.52l-26.25-65.25c-3.33,1.36-6.89,2.2-10.68,2.2h-.1c-3.66,0-7.35-.83-10.68-2.3l-26.49,64.78c-6.99-1.63-13.64-3.56-20.16-5.99l42.09-102.72c.73.77,1.53,1.43,2.36,2.06,0,0,.03,0,.03.03,3.66,2.73,8.19,4.29,13.01,4.29s9.32-1.56,12.98-4.33c.87-.63,1.66-1.33,2.43-2.1l41.86,103.78Z"/>
  <circle class="cls-1" cx="264.39" cy="413.8" r="13.55"/>
  <path class="cls-1" d="M166.79,359.82c-5.29-5.29-13.88-5.29-19.17,0-5.29,5.29-5.29,13.87,0,19.17,5.29,5.29,13.88,5.29,19.17,0,5.29-5.29,5.29-13.87,0-19.17Z"/>
  <circle class="cls-1" cx="112.8" cy="262.2" r="13.55"/>
  <path class="cls-1" d="M231.03,206.95h-.23c-1.03,0-2.03.07-3.03.23-6.06.83-11.51,4.23-15.01,9.45-1.8,2.69-2.93,5.69-3.39,8.75-.17,1.13-.27,2.26-.27,3.39l-99.36-42.36c3.1-6.29,6.65-12.48,10.45-18.33l61.22,26.15c1.36-3.46,3.33-6.42,6.09-9.18s5.72-4.69,9.15-5.96l-25.69-61.22c5.86-3.89,12.05-7.35,18.37-10.45l41.69,99.52Z"/>
  <path class="cls-1" d="M166.78,164.59c5.29-5.29,5.29-13.87,0-19.17-5.29-5.29-13.87-5.29-19.17,0-5.29,5.29-5.29,13.87,0,19.17,5.29,5.29,13.87,5.29,19.17,0Z"/>
  <path class="cls-1" d="M321.07,98.94l-41.26,100.59c-.76-.8-1.6-1.5-2.5-2.16-3.66-2.73-8.15-4.29-12.94-4.29s-9.28,1.53-12.91,4.26c-.9.63-1.73,1.33-2.5,2.13l-40.26-100.06c6.55-2.29,13.31-4.13,20.3-5.62l24.76,61.69c3.33-1.5,6.89-2.16,10.68-2.16h.1c3.79,0,7.45.8,10.68,2.26l25.46-62.12c6.99,1.36,13.74,3.33,20.4,5.49Z"/>
  <circle class="cls-1" cx="264.4" cy="110.61" r="13.55"/>
  <path class="cls-1" d="M421.3,186.32l-101.75,42.53c0-1.03-.07-2.06-.23-3.1v-.03c-.43-3.16-1.56-6.22-3.39-8.98-3.46-5.19-8.88-8.62-14.91-9.52-1.03-.17-2.1-.23-3.16-.23h-.03l42.62-100.12c6.32,2.99,12.51,6.42,18.47,10.22l-26.49,62.26c3.33,1.26,6.42,3.19,9.05,5.96,2.76,2.63,4.72,5.86,5.99,9.18l63.15-26.49c3.89,5.82,7.45,11.91,10.68,18.33Z"/>
  <path class="cls-1" d="M362.01,164.59c5.29,5.29,13.87,5.29,19.17,0,5.29-5.29,5.29-13.87,0-19.17-5.29-5.29-13.88-5.29-19.17,0-5.29,5.29-5.29,13.87,0,19.17Z"/>
  <path class="cls-1" d="M402.44,262.21c0,7.49,6.07,13.55,13.55,13.55s13.55-6.07,13.55-13.55-6.07-13.55-13.55-13.55-13.55,6.07-13.55,13.55Z"/>
  <path class="cls-1" d="M362.01,359.82c-5.29,5.29-5.29,13.87,0,19.17,5.29,5.29,13.88,5.29,19.17,0,5.29-5.29,5.29-13.87,0-19.17-5.29-5.29-13.88-5.29-19.17,0Z"/>
  <path class="cls-1" d="M435.84,299.59c-1.46,7.02-3.33,13.78-5.62,20.3l-103.02-42.13c.86-.83,1.63-1.7,2.33-2.66,2.69-3.63,4.22-8.12,4.19-12.88,0-4.76-1.56-9.28-4.26-12.91-.67-.93-1.43-1.8-2.26-2.63l102.22-41.23c2.43,6.65,4.36,13.44,5.86,20.3l-64.22,25.92c1.5,3.23,2.3,6.89,2.3,10.65s-.8,7.45-2.3,10.68l64.78,26.59Z"/>
  <path class="cls-1" d="M201.42,277.79l-101.05,40.73c-2.3-6.65-4.13-13.54-5.52-20.53l62.86-25.22c-1.5-3.33-2.3-6.89-2.3-10.65.1-3.79.9-7.45,2.3-10.78l-62.02-25.36c1.6-6.99,3.53-13.74,5.82-20.3l99.89,40.89c-.97.9-1.8,1.9-2.56,2.96-2.59,3.63-4.06,8.05-4.03,12.71.03,4.66,1.53,9.05,4.16,12.68v.03c.77,1.03,1.56,1.96,2.46,2.83Z"/>
  <path class="cls-1" d="M231,317.52l-43.39,101.89c-6.42-3.1-12.48-6.65-18.33-10.55l27.15-63.75c-3.43-1.26-6.52-3.33-9.15-5.96-2.63-2.76-4.69-5.86-5.96-9.15l-63.09,26.45c-3.76-5.95-7.22-12.14-10.18-18.57l100.92-42.33c0,1.2.1,2.36.27,3.56.47,3.06,1.6,6.02,3.39,8.72,3.49,5.23,8.95,8.62,15.01,9.45,1,.17,2,.23,3.03.23h.33Z"/>
  <path class="cls-1" d="M294.59,249.49l7.91-18.81c1.76-4.19-2.45-8.41-6.65-6.65h0s-19.03,7.22-19.03,7.22l-7.76-18.45c-1.75-4.16-7.66-4.14-9.37.04l-7.86,19.1-19.02-7.97c-4.18-1.75-8.38,2.44-6.65,6.62l7.67,18.54-19.33,8.35c-4.11,1.77-4.08,7.61.04,9.34l19.29,8.11-7.81,18.92c-1.73,4.18,2.47,8.37,6.65,6.62l19.16-8,7.84,19.06c1.72,4.18,7.63,4.2,9.38.03l7.89-18.86,19.2,7.8c4.18,1.7,8.34-2.5,6.59-6.66l-7.91-18.9,19.16-8.03c4.16-1.74,4.15-7.64-.01-9.37l-19.38-8.06ZM264.21,275.52c-7.84,0-14.16-6.73-13.48-14.85.52-6.19,5.46-11.37,11.61-12.2,8.28-1.12,15.4,5.34,15.4,13.4,0,7.57-6.08,13.64-13.53,13.64Z"/>
</svg>